<?xml version="1.0" encoding="UTF-8" standalone="no"?>
<svg
   xmlns:dc="http://purl.org/dc/elements/1.1/"
   xmlns:cc="http://creativecommons.org/ns#"
   xmlns:rdf="http://www.w3.org/1999/02/22-rdf-syntax-ns#"
   xmlns:svg="http://www.w3.org/2000/svg"
   xmlns="http://www.w3.org/2000/svg"
   xmlns:sodipodi="http://sodipodi.sourceforge.net/DTD/sodipodi-0.dtd"
   xmlns:inkscape="http://www.inkscape.org/namespaces/inkscape"
   width="4.4628744mm"
   height="5.2916665mm"
   viewBox="0 0 4.4628744 5.2916664"
   version="1.1"
   id="svg634"
   sodipodi:docname="mac.svg"
   inkscape:version="1.0.2-2 (e86c870879, 2021-01-15)">
  <sodipodi:namedview
     pagecolor="#ffffff"
     bordercolor="#666666"
     borderopacity="1"
     objecttolerance="10"
     gridtolerance="10"
     guidetolerance="10"
     inkscape:pageopacity="0"
     inkscape:pageshadow="2"
     inkscape:window-width="640"
     inkscape:window-height="480"
     id="namedview7"
     showgrid="false"
     inkscape:zoom="12.897705"
     inkscape:cx="18.897643"
     inkscape:cy="22.407086"
     inkscape:current-layer="svg634" />
  <defs
     id="defs628" />
  <metadata
     id="metadata631">
    <rdf:RDF>
      <cc:Work
         rdf:about="">
        <dc:format>image/svg+xml</dc:format>
        <dc:type
           rdf:resource="http://purl.org/dc/dcmitype/StillImage" />
        <dc:title />
      </cc:Work>
    </rdf:RDF>
  </metadata>
  <g
     id="layer1"
     transform="matrix(0.44628737,0,0,0.44628737,-50.398594,-79.672935)"
     style="stroke-width:2.24071;fill:#dddddd;fill-opacity:1">
    <path
       d="m 121.25663,189.90344 c -0.64314,0.62416 -1.35273,0.52686 -2.0291,0.23258 -0.71909,-0.30021 -1.37647,-0.3192 -2.1359,0 -0.94573,0.40819 -1.44767,0.28953 -2.01724,-0.23258 -3.21572,-3.31064 -2.74107,-8.35374 0.91369,-8.5436 0.8864,0.0475 1.507,0.49007 2.02911,0.52686 0.77604,-0.15782 1.51886,-0.60992 2.34949,-0.55059 0.99794,0.0807 1.74431,0.47465 2.24269,1.18305 -2.05284,1.23408 -1.56633,3.93955 0.3192,4.69898 -0.37734,0.99082 -0.86148,1.96978 -1.67312,2.69361 z m -3.31064,-8.5792 c -0.0961,-1.47139 1.09643,-2.68174 2.46815,-2.8004 0.18867,1.69686 -1.54259,2.96653 -2.46815,2.8004 z"
       id="path10"
       style="stroke-width:0.592853;fill:#dddddd;fill-opacity:1" />
  </g>
</svg>
