<?xml version="1.0" encoding="UTF-8" standalone="no"?>
<svg
   xmlns:dc="http://purl.org/dc/elements/1.1/"
   xmlns:cc="http://creativecommons.org/ns#"
   xmlns:rdf="http://www.w3.org/1999/02/22-rdf-syntax-ns#"
   xmlns:svg="http://www.w3.org/2000/svg"
   xmlns="http://www.w3.org/2000/svg"
   xmlns:xlink="http://www.w3.org/1999/xlink"
   xmlns:sodipodi="http://sodipodi.sourceforge.net/DTD/sodipodi-0.dtd"
   xmlns:inkscape="http://www.inkscape.org/namespaces/inkscape"
   width="210mm"
   height="297mm"
   viewBox="0 0 210 297"
   version="1.1"
   id="svg8"
   inkscape:version="1.0.2-2 (e86c870879, 2021-01-15)"
   sodipodi:docname="logo.svg">
  <defs
     id="defs2">
    <linearGradient
       inkscape:collect="always"
       xlink:href="#linearGradient5546"
       id="linearGradient169"
       gradientUnits="userSpaceOnUse"
       gradientTransform="matrix(2.3951515,0,0,2.3951515,-1376.4445,-184.69675)"
       x1="1078.0781"
       y1="218.84903"
       x2="1098.0056"
       y2="173.94774" />
    <linearGradient
       id="linearGradient5546"
       inkscape:collect="always">
      <stop
         id="stop5540"
         offset="0"
         style="stop-color:#53d9fe;stop-opacity:1" />
      <stop
         id="stop5542"
         offset="0.55044216"
         style="stop-color:#0864c5;stop-opacity:1" />
      <stop
         id="stop5544"
         offset="1"
         style="stop-color:#d523d3;stop-opacity:1" />
    </linearGradient>
    <linearGradient
       inkscape:collect="always"
       xlink:href="#linearGradient5546"
       id="linearGradient30"
       gradientUnits="userSpaceOnUse"
       gradientTransform="matrix(2.3951515,0,0,2.3951515,-1376.4445,-184.69675)"
       x1="1078.0781"
       y1="218.84903"
       x2="1098.0056"
       y2="173.94774" />
  </defs>
  <sodipodi:namedview
     id="base"
     pagecolor="#ffffff"
     bordercolor="#666666"
     borderopacity="1.0"
     inkscape:pageopacity="0.0"
     inkscape:pageshadow="2"
     inkscape:zoom="5.6"
     inkscape:cx="-189.01978"
     inkscape:cy="307.52237"
     inkscape:document-units="mm"
     inkscape:current-layer="layer1"
     inkscape:document-rotation="0"
     showgrid="false" />
  <metadata
     id="metadata5">
    <rdf:RDF>
      <cc:Work
         rdf:about="">
        <dc:format>image/svg+xml</dc:format>
        <dc:type
           rdf:resource="http://purl.org/dc/dcmitype/StillImage" />
        <dc:title />
      </cc:Work>
    </rdf:RDF>
  </metadata>
  <g
     inkscape:label="Réteg 1"
     inkscape:groupmode="layer"
     id="layer1">
    <g
       id="g987"
       inkscape:export-xdpi="82.456223"
       inkscape:export-ydpi="82.456223">
      <text
         xml:space="preserve"
         style="font-style:italic;font-variant:normal;font-weight:bold;font-stretch:normal;font-size:10.5833px;line-height:1.25;font-family:Arial;-inkscape-font-specification:'Arial Bold Italic';fill:#000000;fill-opacity:1;stroke:none;stroke-width:0.264583"
         x="-58.208332"
         y="77.10714"
         id="text12"><tspan
           sodipodi:role="line"
           id="tspan10"
           x="-58.208332"
           y="77.10714"
           style="font-style:italic;font-variant:normal;font-weight:bold;font-stretch:normal;font-family:Arial;-inkscape-font-specification:'Arial Bold Italic';fill:#777777;fill-opacity:1;stroke-width:0.264583">Tk nter docs</tspan></text>
      <g
         id="g167"
         transform="matrix(0.05633723,0,0,0.05633723,-112.66501,56.962396)"
         style="stroke-width:0.33532">
        <path
           id="path163"
           d="m 1259.2301,222.72575 c 0.2419,14.77921 -0.1964,29.39897 -12.9853,43.29088 l -0.4749,0.53448 h 0.7125 l 5.2258,0.0793 c -8.4913,17.66406 -14.0162,35.278 -26.2279,52.8715 l -0.4355,0.63344 0.7524,-0.13868 6.453,-1.22726 c -4.5714,11.59826 -12.3885,19.277 -20.8637,21.85327 -2.3327,-32.66503 13.9685,-61.49768 27.8115,-90.24375 0.024,-0.0264 0.026,-0.0527 0.038,-0.0793 l -0.5148,-0.3563 c -22.6674,25.34571 -32.8818,61.09341 -36.7387,90.58027 -7.6825,-4.33724 -10.2431,-10.07981 -12.8467,-17.89435 l 5.3642,2.2566 0.5543,0.23759 -0.1198,-0.59383 c -4.077,-18.12856 2.2526,-31.14092 8.3929,-48.23955 l 4.4142,2.94942 0.5145,0.3563 -0.024,-0.61364 c -0.3459,-13.89185 9.0079,-27.83779 21.4176,-40.28209 l 1.7222,4.61216 0.2371,0.61361 0.3365,-0.57405 3.7807,-6.29467 0.024,-0.0395 c 6.2403,-8.59534 12.838,-11.39338 23.4763,-14.29175 z"
           style="display:inline;fill:url(#linearGradient169);fill-opacity:1;fill-rule:evenodd;stroke:none;stroke-width:0.0887206px;stroke-linecap:butt;stroke-linejoin:miter;stroke-opacity:1" />
        <path
           style="display:inline;fill:#272727;fill-opacity:1;fill-rule:evenodd;stroke:none;stroke-width:0.0887206px;stroke-linecap:butt;stroke-linejoin:miter;stroke-opacity:1"
           d="m 1262.6744,217.48018 -0.3363,0.0594 c -12.4689,2.17485 -24.6756,6.75626 -30.0285,17.71619 l -2.2567,-3.93914 -0.1988,-0.3563 -0.297,0.29692 c -6.1402,5.87559 -12.7322,13.48605 -17.5975,20.96251 -4.5668,7.018 -7.5959,13.88672 -7.2647,19.14142 l -3.1867,-3.97873 -0.3169,-0.39589 -0.218,0.45529 c -3.8789,8.37961 -7.7938,18.68872 -10.1348,28.14797 -2.2196,8.96862 -3.0143,17.13237 -0.9502,22.26898 l -5.2456,-3.04836 -0.4354,-0.25734 -0.038,0.51465 c -0.9876,14.9597 5.0916,22.10243 12.0746,28.99915 8.4542,8.4168 5.9781,19.57785 5.9781,29.61214 v 0.0989 l 0.06,0.0793 7.2844,10.45158 0.5741,0.83141 v -1.00953 c 0.5538,-11.05645 -2.843,-33.61607 6.7488,-39.1539 9.1566,-5.51322 19.4115,-19.02777 22.1108,-31.8694 l 0.1198,-0.51463 -0.4949,0.13868 -4.7505,1.28665 c 4.2205,-3.9629 8.4721,-11.81442 12.5101,-20.96254 4.2825,-9.70235 8.2812,-20.69073 11.56,-29.4742 l 0.1772,-0.47508 -0.4948,0.0395 -3.662,0.25733 c 4.5271,-4.80508 7.0434,-12.74009 8.2741,-21.1209 1.2809,-8.72283 1.1911,-17.90768 0.4752,-24.46616 z m -3.4443,5.24557 c 0.2419,14.77921 -0.1964,29.39897 -12.9853,43.29088 l -0.4749,0.53448 h 0.7125 l 5.2258,0.0793 c -8.4913,17.66406 -14.0162,35.278 -26.2279,52.8715 l -0.4355,0.63344 0.7524,-0.13868 6.453,-1.22726 c -4.5714,11.59826 -12.3885,19.277 -20.8637,21.85327 -2.3327,-32.66503 13.9685,-61.49768 27.8115,-90.24375 0.024,-0.0264 0.026,-0.0527 0.038,-0.0793 l -0.5148,-0.3563 c -22.6674,25.34571 -32.8818,61.09341 -36.7387,90.58027 -7.6825,-4.33724 -10.2431,-10.07981 -12.8467,-17.89435 l 5.3642,2.2566 0.5543,0.23759 -0.1198,-0.59383 c -4.077,-18.12856 2.2526,-31.14092 8.3929,-48.23955 l 4.4142,2.94942 0.5145,0.3563 -0.024,-0.61364 c -0.3459,-13.89185 9.0079,-27.83779 21.4176,-40.28209 l 1.7222,4.61216 0.2371,0.61361 0.3365,-0.57405 3.7807,-6.29467 0.024,-0.0395 c 6.2403,-8.59534 12.838,-11.39338 23.4763,-14.29175 z"
           id="path165"
           sodipodi:nodetypes="ccccccsccccscccccccccccccccccsscccsccccccccccccccccccccccccccccccc" />
      </g>
    </g>
    <g
       id="g26"
       transform="matrix(0.05633723,0,0,0.05633723,-119.0906,68.868645)"
       style="stroke-width:0.33532"
       inkscape:export-xdpi="86.051491"
       inkscape:export-ydpi="86.051491">
      <path
         id="path22"
         d="m 1259.2301,222.72575 c 0.2419,14.77921 -0.1964,29.39897 -12.9853,43.29088 l -0.4749,0.53448 h 0.7125 l 5.2258,0.0793 c -8.4913,17.66406 -14.0162,35.278 -26.2279,52.8715 l -0.4355,0.63344 0.7524,-0.13868 6.453,-1.22726 c -4.5714,11.59826 -12.3885,19.277 -20.8637,21.85327 -2.3327,-32.66503 13.9685,-61.49768 27.8115,-90.24375 0.024,-0.0264 0.026,-0.0527 0.038,-0.0793 l -0.5148,-0.3563 c -22.6674,25.34571 -32.8818,61.09341 -36.7387,90.58027 -7.6825,-4.33724 -10.2431,-10.07981 -12.8467,-17.89435 l 5.3642,2.2566 0.5543,0.23759 -0.1198,-0.59383 c -4.077,-18.12856 2.2526,-31.14092 8.3929,-48.23955 l 4.4142,2.94942 0.5145,0.3563 -0.024,-0.61364 c -0.3459,-13.89185 9.0079,-27.83779 21.4176,-40.28209 l 1.7222,4.61216 0.2371,0.61361 0.3365,-0.57405 3.7807,-6.29467 0.024,-0.0395 c 6.2403,-8.59534 12.838,-11.39338 23.4763,-14.29175 z"
         style="display:inline;fill:url(#linearGradient30);fill-opacity:1;fill-rule:evenodd;stroke:none;stroke-width:0.0887206px;stroke-linecap:butt;stroke-linejoin:miter;stroke-opacity:1" />
      <path
         style="display:inline;fill:#272727;fill-opacity:1;fill-rule:evenodd;stroke:none;stroke-width:0.0887206px;stroke-linecap:butt;stroke-linejoin:miter;stroke-opacity:1"
         d="m 1262.6744,217.48018 -0.3363,0.0594 c -12.4689,2.17485 -24.6756,6.75626 -30.0285,17.71619 l -2.2567,-3.93914 -0.1988,-0.3563 -0.297,0.29692 c -6.1402,5.87559 -12.7322,13.48605 -17.5975,20.96251 -4.5668,7.018 -7.5959,13.88672 -7.2647,19.14142 l -3.1867,-3.97873 -0.3169,-0.39589 -0.218,0.45529 c -3.8789,8.37961 -7.7938,18.68872 -10.1348,28.14797 -2.2196,8.96862 -3.0143,17.13237 -0.9502,22.26898 l -5.2456,-3.04836 -0.4354,-0.25734 -0.038,0.51465 c -0.9876,14.9597 5.0916,22.10243 12.0746,28.99915 8.4542,8.4168 5.9781,19.57785 5.9781,29.61214 v 0.0989 l 0.06,0.0793 7.2844,10.45158 0.5741,0.83141 v -1.00953 c 0.5538,-11.05645 -2.843,-33.61607 6.7488,-39.1539 9.1566,-5.51322 19.4115,-19.02777 22.1108,-31.8694 l 0.1198,-0.51463 -0.4949,0.13868 -4.7505,1.28665 c 4.2205,-3.9629 8.4721,-11.81442 12.5101,-20.96254 4.2825,-9.70235 8.2812,-20.69073 11.56,-29.4742 l 0.1772,-0.47508 -0.4948,0.0395 -3.662,0.25733 c 4.5271,-4.80508 7.0434,-12.74009 8.2741,-21.1209 1.2809,-8.72283 1.1911,-17.90768 0.4752,-24.46616 z m -3.4443,5.24557 c 0.2419,14.77921 -0.1964,29.39897 -12.9853,43.29088 l -0.4749,0.53448 h 0.7125 l 5.2258,0.0793 c -8.4913,17.66406 -14.0162,35.278 -26.2279,52.8715 l -0.4355,0.63344 0.7524,-0.13868 6.453,-1.22726 c -4.5714,11.59826 -12.3885,19.277 -20.8637,21.85327 -2.3327,-32.66503 13.9685,-61.49768 27.8115,-90.24375 0.024,-0.0264 0.026,-0.0527 0.038,-0.0793 l -0.5148,-0.3563 c -22.6674,25.34571 -32.8818,61.09341 -36.7387,90.58027 -7.6825,-4.33724 -10.2431,-10.07981 -12.8467,-17.89435 l 5.3642,2.2566 0.5543,0.23759 -0.1198,-0.59383 c -4.077,-18.12856 2.2526,-31.14092 8.3929,-48.23955 l 4.4142,2.94942 0.5145,0.3563 -0.024,-0.61364 c -0.3459,-13.89185 9.0079,-27.83779 21.4176,-40.28209 l 1.7222,4.61216 0.2371,0.61361 0.3365,-0.57405 3.7807,-6.29467 0.024,-0.0395 c 6.2403,-8.59534 12.838,-11.39338 23.4763,-14.29175 z"
         id="path24"
         sodipodi:nodetypes="ccccccsccccscccccccccccccccccsscccsccccccccccccccccccccccccccccccc" />
    </g>
  </g>
</svg>
