<?xml version="1.0" encoding="UTF-8" standalone="no"?>
<svg
   xmlns:dc="http://purl.org/dc/elements/1.1/"
   xmlns:cc="http://creativecommons.org/ns#"
   xmlns:rdf="http://www.w3.org/1999/02/22-rdf-syntax-ns#"
   xmlns:svg="http://www.w3.org/2000/svg"
   xmlns="http://www.w3.org/2000/svg"
   xmlns:xlink="http://www.w3.org/1999/xlink"
   width="66.145828mm"
   height="8.1592417mm"
   viewBox="0 0 66.145828 8.1592417"
   version="1.1"
   id="svg8">
  <defs
     id="defs2">
    <linearGradient
       id="linearGradient866">
      <stop
         id="stop860"
         offset="0"
         style="stop-color:#007fff;stop-opacity:1" />
      <stop
         id="stop868"
         offset="0.42617622"
         style="stop-color:#2c68e1;stop-opacity:1;" />
      <stop
         id="stop864"
         offset="1"
         style="stop-color:#ff0055;stop-opacity:1" />
    </linearGradient>
    <linearGradient
       xlink:href="#linearGradient866"
       id="linearGradient169"
       gradientUnits="userSpaceOnUse"
       gradientTransform="matrix(0.11191618,0,0,0.11191618,-165.64203,50.610034)"
       x1="1078.0781"
       y1="218.84903"
       x2="1098.0056"
       y2="173.32877" />
  </defs>
  <metadata
     id="metadata5">
    <rdf:RDF>
      <cc:Work
         rdf:about="">
        <dc:format>image/svg+xml</dc:format>
        <dc:type
           rdf:resource="http://purl.org/dc/dcmitype/StillImage" />
        <dc:title></dc:title>
      </cc:Work>
    </rdf:RDF>
  </metadata>
  <g
     id="layer1"
     transform="translate(58.115312,-69.402205)">
    <g
       id="g887"
       transform="matrix(1.0415004,0,0,1.0415004,2.4118115,-2.8802226)"
       style="stroke-width:0.960153">
      <text
         xml:space="preserve"
         style="font-style:normal;font-variant:normal;font-weight:normal;font-stretch:normal;font-size:10.5833px;line-height:1.25;font-family:'Arial Rounded MT Bold';-inkscape-font-specification:'Arial Rounded MT Bold, ';fill:#dddddd;fill-opacity:1;stroke:none;stroke-width:0.25404"
         x="-58.208332"
         y="77.10714"
         id="text12"><tspan
           id="tspan10"
           x="-58.208332"
           y="77.10714"
           style="font-style:normal;font-variant:normal;font-weight:normal;font-stretch:normal;font-family:'Arial Rounded MT Bold';-inkscape-font-specification:'Arial Rounded MT Bold, ';fill:#dddddd;fill-opacity:1;stroke-width:0.25404">Tk nter docs</tspan></text>
      <path
         id="path163"
         d="m -42.487132,69.647314 c 0.01131,0.690576 -0.0092,1.3737 -0.606753,2.022816 l -0.02219,0.02497 h 0.03329 l 0.244182,0.0037 c -0.396767,0.825373 -0.654923,1.648405 -1.225529,2.470481 l -0.02035,0.0296 0.03516,-0.0065 0.301524,-0.05734 c -0.213604,0.541942 -0.578867,0.90074 -0.97488,1.021119 -0.108998,-1.526311 0.652693,-2.873549 1.299524,-4.216742 0.0012,-0.0012 0.0012,-0.0025 0.0017,-0.0037 l -0.02405,-0.01665 c -1.05916,1.184307 -1.536439,2.854659 -1.716657,4.232466 -0.358974,-0.202662 -0.478621,-0.47099 -0.600277,-0.836134 l 0.250648,0.105443 0.0259,0.0111 -0.0056,-0.02774 c -0.190502,-0.847078 0.105255,-1.455095 0.392167,-2.254047 l 0.206259,0.137814 0.02404,0.01665 -0.0012,-0.02867 c -0.01617,-0.649112 0.420904,-1.300752 1.000762,-1.882226 l 0.08047,0.215508 0.01108,0.02867 0.01573,-0.02682 0.176658,-0.294127 0.0012,-0.0018 c 0.291585,-0.401628 0.599871,-0.532369 1.096957,-0.667799 z"
         style="display:inline;fill:url(#linearGradient169);fill-opacity:1;fill-rule:evenodd;stroke:none;stroke-width:0.0047991px;stroke-linecap:butt;stroke-linejoin:miter;stroke-opacity:1" />
      <path
         style="display:inline;fill:#dddddd;fill-opacity:1;fill-rule:evenodd;stroke:none;stroke-width:0.0047991px;stroke-linecap:butt;stroke-linejoin:miter;stroke-opacity:1"
         d="m -42.326193,69.402209 -0.01572,0.0027 c -0.582623,0.101622 -1.152995,0.315694 -1.403116,0.827809 l -0.105447,-0.184061 -0.0093,-0.01665 -0.01388,0.01388 c -0.286908,0.274543 -0.594926,0.630151 -0.822263,0.979497 -0.213389,0.327924 -0.354927,0.648873 -0.339451,0.894405 l -0.148902,-0.185911 -0.01481,-0.0185 -0.01018,0.02127 c -0.181246,0.391547 -0.364174,0.873252 -0.473561,1.315246 -0.103713,0.419069 -0.140846,0.800529 -0.0444,1.040543 l -0.245107,-0.142438 -0.02035,-0.01203 -0.0017,0.02404 c -0.04615,0.699009 0.237911,1.032762 0.5642,1.355019 0.395032,0.393284 0.279333,0.914797 0.279333,1.383661 v 0.0046 l 0.0028,0.0037 0.340371,0.488361 0.02682,0.03885 v -0.04717 c 0.02588,-0.516626 -0.132842,-1.57075 0.315345,-1.829512 0.427853,-0.257611 0.907025,-0.889094 1.033153,-1.489133 l 0.0056,-0.02404 -0.02312,0.0065 -0.221974,0.06012 c 0.197208,-0.185171 0.395869,-0.552042 0.584549,-0.979499 0.200105,-0.453353 0.386949,-0.966797 0.540154,-1.377215 l 0.0083,-0.02219 -0.02312,0.0018 -0.171112,0.01203 c 0.211534,-0.224523 0.329111,-0.595296 0.386616,-0.986899 0.05985,-0.407584 0.05565,-0.836756 0.0222,-1.143209 z m -0.160939,0.245105 c 0.01131,0.690576 -0.0092,1.3737 -0.606753,2.022816 l -0.02219,0.02497 h 0.03329 l 0.244182,0.0037 c -0.396767,0.825373 -0.654923,1.648405 -1.225529,2.470481 l -0.02035,0.0296 0.03516,-0.0065 0.301524,-0.05734 c -0.213604,0.541942 -0.578867,0.90074 -0.97488,1.021119 -0.108998,-1.526311 0.652693,-2.873549 1.299524,-4.216742 0.0012,-0.0012 0.0012,-0.0025 0.0017,-0.0037 l -0.02405,-0.01665 c -1.05916,1.184307 -1.536439,2.854659 -1.716657,4.232466 -0.358974,-0.202662 -0.478621,-0.47099 -0.600277,-0.836134 l 0.250648,0.105443 0.0259,0.0111 -0.0056,-0.02774 c -0.190502,-0.847078 0.105255,-1.455095 0.392167,-2.254047 l 0.206259,0.137814 0.02404,0.01665 -0.0012,-0.02867 c -0.01617,-0.649112 0.420904,-1.300752 1.000762,-1.882226 l 0.08047,0.215508 0.01108,0.02867 0.01573,-0.02682 0.176658,-0.294127 0.0012,-0.0018 c 0.291585,-0.401628 0.599871,-0.532369 1.096957,-0.667799 z"
         id="path165" />
    </g>
  </g>
</svg>
